<?xml version="1.0" encoding="UTF-8"?>
<svg xmlns="http://www.w3.org/2000/svg" xmlns:xlink="http://www.w3.org/1999/xlink" viewBox="0 0 150 150" width="150px" height="150px">
<g id="surface62187417">
<path style=" stroke:none;fill-rule:nonzero;fill:rgb(0%,0%,0%);fill-opacity:1;" d="M 75 6 C 36.949219 6 6 36.953125 6 75 C 6 113.046875 36.949219 144 75 144 C 113.050781 144 144 113.046875 144 75 C 144 36.953125 113.050781 6 75 6 Z M 64.183594 29.210938 C 72.113281 28.84375 86.421875 38.617188 90.015625 43.941406 L 90.371094 43.941406 C 90.40625 43.941406 90.4375 43.964844 90.480469 43.96875 C 94.679688 43.199219 99.113281 43.664062 102.890625 45.417969 C 111.046875 49 119.378906 60.964844 116.386719 67.8125 C 114.664062 71.539062 107.824219 73.105469 101.574219 73.390625 C 102.429688 77.21875 101.671875 79.539062 100.988281 81.609375 C 100.261719 83.8125 99.628906 85.71875 100.851562 89.648438 C 101.4375 91.558594 101.96875 93.570312 102.441406 95.367188 C 102.949219 97.324219 103.582031 99.753906 103.886719 100.242188 C 104.160156 100.507812 105.597656 100.855469 106.546875 101.082031 C 109.898438 101.871094 115.5 103.199219 115.5 109.5 C 115.5 110.316406 114.847656 110.980469 114.035156 111 C 114.035156 111 102.003906 111.253906 100.707031 111.253906 C 99.097656 111.253906 97.625 109.425781 90.21875 98.238281 C 88.957031 96.332031 87.695312 94.445312 86.449219 92.609375 C 86.496094 92.519531 86.546875 92.441406 86.589844 92.355469 C 87.835938 89.75 88.328125 85.632812 85.964844 81.878906 C 84.074219 78.886719 79.785156 75.316406 70.054688 75.316406 C 68.394531 75.316406 67.054688 76.660156 67.054688 78.316406 C 67.054688 79.972656 68.394531 81.316406 70.054688 81.316406 C 75.511719 81.316406 79.359375 82.652344 80.882812 85.078125 C 81.945312 86.765625 81.707031 88.660156 81.175781 89.773438 C 79.726562 92.824219 76.980469 94.902344 72.78125 96.128906 C 71.1875 96.589844 70.273438 98.25 70.734375 99.84375 C 71.117188 101.15625 72.308594 102.011719 73.613281 102.011719 C 73.886719 102.011719 74.171875 101.972656 74.449219 101.890625 C 75.011719 101.722656 75.542969 101.53125 76.074219 101.34375 C 82.46875 102.691406 84.21875 104.050781 84.9375 105.359375 C 85.734375 106.789062 85.105469 108.113281 84.769531 108.828125 L 84.621094 109.144531 C 83.785156 111.15625 80.164062 111.347656 65.039062 111.265625 L 64.113281 111.257812 C 62.3125 111.289062 60.632812 111.304688 59.0625 111.304688 C 49.453125 111.304688 44.082031 110.660156 42.199219 108.230469 C 41.53125 107.363281 41.339844 106.332031 41.644531 105.234375 C 42.082031 103.933594 42.371094 102.820312 42.546875 101.855469 C 40.757812 102.84375 38.855469 103.460938 37.203125 103.460938 C 32.933594 103.460938 29.332031 99.851562 29.332031 95.585938 C 29.332031 91.644531 32.289062 88.484375 36.277344 87.851562 C 36.121094 82.246094 37.386719 68.644531 52.066406 61.390625 C 57.605469 58.664062 64.121094 57.960938 69.359375 57.398438 C 72.761719 57.03125 76.238281 56.652344 77.941406 55.757812 L 78.632812 53.859375 C 77.164062 49.984375 69.78125 48.816406 63.757812 47.867188 C 57.457031 46.871094 52.480469 46.089844 52.066406 42.539062 C 51.578125 38.328125 54.894531 37.171875 56.308594 36.679688 C 58.167969 36.035156 58.402344 35.660156 58.425781 35.621094 C 58.464844 31.15625 61.113281 29.824219 62.683594 29.425781 C 63.152344 29.308594 63.65625 29.234375 64.183594 29.210938 Z M 105 57 C 103.34375 57 102 58.34375 102 60 C 102 61.65625 103.34375 63 105 63 C 106.65625 63 108 61.65625 108 60 C 108 58.34375 106.65625 57 105 57 Z M 105 57 "/>
</g>
</svg>
