<?xml version="1.0" encoding="UTF-8"?>
<svg xmlns="http://www.w3.org/2000/svg" xmlns:xlink="http://www.w3.org/1999/xlink" viewBox="0 0 250 250" width="250px" height="250px">
<g id="surface62213661">
<path style=" stroke:none;fill-rule:nonzero;fill:rgb(0%,0%,0%);fill-opacity:1;" d="M 125 10 C 61.585938 10 10 61.589844 10 125 C 10 188.410156 61.585938 240 125 240 C 188.414062 240 240 188.410156 240 125 C 240 61.589844 188.414062 10 125 10 Z M 106.972656 48.683594 C 120.1875 48.074219 144.039062 64.359375 150.027344 73.234375 L 150.617188 73.234375 C 150.679688 73.234375 150.730469 73.277344 150.800781 73.28125 C 157.800781 72 165.1875 72.773438 171.484375 75.695312 C 185.078125 81.667969 198.964844 101.609375 193.976562 113.019531 C 191.109375 119.234375 179.707031 121.839844 169.289062 122.316406 C 170.71875 128.699219 169.449219 132.566406 168.3125 136.015625 C 167.101562 139.6875 166.050781 142.863281 168.085938 149.414062 C 169.0625 152.597656 169.949219 155.949219 170.734375 158.945312 C 171.582031 162.207031 172.640625 166.253906 173.144531 167.070312 C 173.597656 167.515625 175.992188 168.09375 177.578125 168.46875 C 183.164062 169.785156 192.5 172 192.5 182.5 C 192.5 183.859375 191.414062 184.96875 190.058594 185 C 190.058594 185 170.007812 185.421875 167.84375 185.421875 C 165.160156 185.421875 162.707031 182.375 150.363281 163.730469 C 148.261719 160.554688 146.15625 157.40625 144.082031 154.347656 C 144.15625 154.199219 144.246094 154.070312 144.316406 153.925781 C 146.390625 149.585938 147.210938 142.71875 143.273438 136.464844 C 140.125 131.476562 132.972656 125.527344 116.757812 125.527344 C 113.992188 125.527344 111.757812 127.765625 111.757812 130.527344 C 111.757812 133.289062 113.992188 135.527344 116.757812 135.527344 C 125.851562 135.527344 132.265625 137.757812 134.804688 141.796875 C 136.574219 144.613281 136.179688 147.765625 135.292969 149.621094 C 132.878906 154.710938 128.300781 158.167969 121.300781 160.214844 C 118.648438 160.984375 117.121094 163.75 117.890625 166.40625 C 118.527344 168.589844 120.515625 170.019531 122.6875 170.019531 C 123.144531 170.019531 123.621094 169.953125 124.082031 169.816406 C 125.015625 169.539062 125.90625 169.222656 126.789062 168.90625 C 137.449219 171.152344 140.363281 173.421875 141.5625 175.597656 C 142.886719 177.980469 141.84375 180.1875 141.28125 181.378906 L 141.035156 181.90625 C 139.640625 185.257812 133.609375 185.578125 108.398438 185.441406 L 106.855469 185.429688 C 103.855469 185.480469 101.054688 185.507812 98.4375 185.507812 C 82.421875 185.507812 73.46875 184.429688 70.332031 180.382812 C 69.21875 178.941406 68.898438 177.21875 69.40625 175.390625 C 70.140625 173.21875 70.617188 171.367188 70.910156 169.757812 C 67.929688 171.40625 64.761719 172.433594 62.003906 172.433594 C 54.890625 172.433594 48.886719 166.417969 48.886719 159.308594 C 48.886719 152.742188 53.8125 147.476562 60.460938 146.417969 C 60.203125 137.074219 62.3125 114.410156 86.777344 102.316406 C 96.007812 97.773438 106.867188 96.605469 115.597656 95.664062 C 121.269531 95.054688 127.0625 94.417969 129.902344 92.929688 L 131.054688 89.765625 C 128.605469 83.304688 116.300781 81.359375 106.261719 79.777344 C 95.761719 78.121094 87.46875 76.820312 86.777344 70.898438 C 85.960938 63.878906 91.488281 61.953125 93.847656 61.132812 C 96.949219 60.058594 97.339844 59.433594 97.375 59.367188 C 97.4375 51.925781 101.851562 49.707031 104.472656 49.042969 C 105.25 48.84375 106.09375 48.722656 106.972656 48.683594 Z M 175 95 C 172.238281 95 170 97.238281 170 100 C 170 102.761719 172.238281 105 175 105 C 177.761719 105 180 102.761719 180 100 C 180 97.238281 177.761719 95 175 95 Z M 175 95 "/>
</g>
</svg>
